<?xml version="1.0" encoding="utf-8"?>
<!-- Generator: Adobe Illustrator 24.0.3, SVG Export Plug-In . SVG Version: 6.00 Build 0)  -->
<svg version="1.1" id="Layer_1" xmlns="http://www.w3.org/2000/svg" xmlns:xlink="http://www.w3.org/1999/xlink" x="0px" y="0px"
	 viewBox="0 0 464.6 264" style="enable-background:new 0 0 464.6 264;" xml:space="preserve">
<title>decimal</title>
<polygon points="0.5,63.1 153.5,134.2 0.5,205.2 "/>
<path d="M298,183.6c-3.4,0.7-6.8,1.2-10.3,1.5c-4.7,0.5-10.7,1.2-17.9,2.3l-2.2-13c-2.4,4.4-6,8-10.4,10.5c-4.8,2.7-10.1,4-15.6,3.9
	c-4.8,0-9.6-0.8-14.1-2.5c-4.4-1.6-8.4-4.2-11.7-7.6c-3.5-3.7-6.3-8.2-8-13c-2.1-6-3.1-12.3-3-18.7c0-6.4,1-12.7,3.2-18.7
	c2-5.5,4.9-10.6,8.8-15c3.7-4.2,8.2-7.5,13.3-9.9c5.2-2.4,10.9-3.7,16.7-3.6c4.3-0.1,8.6,0.9,12.5,2.9c3.1,1.6,5.9,3.7,8.3,6.3V65.6
	c0-4.5-5.1-6.8-15.4-6.8v-6.2l32-5.2c0.3,4.9,0.5,10.7,0.6,17.2S285,78,285,85.4v75.4c0,11.2,4.6,17.1,13.8,17.6L298,183.6z
	 M247.6,178.8c4.4,0,7.9-0.8,10.6-2.4c2.7-1.7,4.9-4.2,6.2-7.1c1.6-3.6,2.6-7.5,3-11.4c0.6-5.1,0.8-10.2,0.8-15.3
	c0-23.3-7.6-35-22.8-35c-3.6-0.1-7.1,0.9-10.1,2.9c-2.9,2-5.3,4.6-7.1,7.6c-1.9,3.3-3.3,6.8-4.2,10.5c-0.9,3.8-1.4,7.7-1.4,11.6
	c0,4.6,0.4,9.3,1.3,13.8c0.8,4.3,2.2,8.5,4.2,12.4c1.8,3.6,4.4,6.7,7.7,9C239.3,177.7,243.4,178.9,247.6,178.8L247.6,178.8z"/>
<path d="M380.4,165.4c-3,6.9-7.9,12.9-14,17.4c-6.1,4.2-13.4,6.4-20.8,6.2c-6,0.1-12-1-17.6-3.4c-4.9-2.1-9.2-5.2-12.7-9.2
	c-3.5-4-6.1-8.7-7.7-13.8c-1.8-5.5-2.6-11.2-2.6-17c0-5.8,0.9-11.7,2.8-17.2c1.8-5.3,4.4-10.2,7.9-14.6c3.3-4.2,7.5-7.7,12.3-10.2
	c4.9-2.6,10.4-3.9,16-3.8c3.8,0,7.6,0.5,11.3,1.3c4,0.9,7.8,2.6,11.1,5.1c3.8,2.9,6.9,6.6,9,10.9c2.5,4.7,4.2,11,5,18.7
	c0,1.5-0.2,3-0.6,4.4h-53.2c-2.5,0-3.8,1-3.8,3c0,4.6,0.6,9.2,2,13.6c1.2,4,3.1,7.8,5.6,11.2c2.3,3.1,5.3,5.7,8.8,7.5
	c3.6,1.8,7.6,2.8,11.6,2.7c5.2,0.1,10.4-1.6,14.5-4.8c4.1-3.2,7.7-7,10.7-11.2L380.4,165.4z M353.2,134.2c5.5,0,8.2-2.8,8.2-8.4
	c-0.3-4.8-2.1-9.5-5.1-13.3c-3-3.8-7.4-5.7-13.1-5.7c-2.9,0-5.8,0.7-8.4,2.1c-2.5,1.4-4.7,3.3-6.5,5.6c-1.8,2.4-3.2,5.1-4.1,8
	c-0.9,3-1.4,6.1-1.4,9.3c0,1.6,1.5,2.4,4.4,2.4L353.2,134.2z"/>
<path d="M464.6,168.4c-1.3,3.5-3.2,6.6-5.8,9.3c-2.5,2.6-5.3,4.7-8.5,6.4c-3.1,1.7-6.5,2.9-9.9,3.7c-3.3,0.8-6.6,1.2-10,1.2
	c-5.4,0.1-10.8-1-15.8-3.3c-4.6-2.1-8.6-5.2-11.8-9.1c-3.3-4-5.8-8.6-7.3-13.6c-1.7-5.4-2.5-11.1-2.5-16.8c0-6,0.9-12,2.7-17.8
	c1.7-5.4,4.5-10.5,8.2-14.8c3.8-4.4,8.5-7.8,13.8-10.1c6.2-2.6,12.8-3.8,19.5-3.7c3.2,0,6.4,0.5,9.5,1.4c3,0.9,5.8,2.2,8.4,3.9
	c2.4,1.6,4.4,3.7,5.9,6.1c1.5,2.3,2.2,5,2.2,7.8c0,2.7-1.3,5.2-3.4,6.9c-2,1.8-4.7,2.9-7.4,2.9c-5.5,0-8.2-3-8.2-9.1
	c0.1-0.9,0.2-1.8,0.3-2.6c0.2-1.2,0.3-2.4,0.3-3.6c0.1-2.5-1.4-4.9-3.7-5.8c-2.4-1.2-5-1.8-7.7-1.8c-3.6-0.1-7,1-9.9,3.1
	c-2.8,2.2-5.1,4.9-6.8,8c-1.9,3.4-3.2,7.1-4,10.9c-0.8,3.8-1.3,7.7-1.3,11.6c0,5,0.5,10.1,1.6,15c0.9,4.2,2.6,8.3,4.8,12
	c4.2,7.1,12,11.3,20.2,11c8.9,0,16.1-4,21.4-12L464.6,168.4z"/>
</svg>
