<?xml version="1.0" encoding="utf-8"?>
<!-- Generator: Adobe Illustrator 24.0.3, SVG Export Plug-In . SVG Version: 6.00 Build 0)  -->
<svg version="1.1" id="Layer_1" xmlns="http://www.w3.org/2000/svg" xmlns:xlink="http://www.w3.org/1999/xlink" x="0px" y="0px"
	 viewBox="0 0 464.6 264" style="enable-background:new 0 0 464.6 264;" xml:space="preserve">
<style type="text/css">
	.st0{enable-background:new    ;}
</style>
<title>decimal</title>
<polygon points="0.5,63.1 153.5,134.2 0.5,205.2 "/>
<g class="st0">
	<path d="M239.4,114.1v-4.3c11.1,0,16.6-3.1,16.6-9.2V39c0-3.9-1.8-5.9-5.3-5.9h-11.9v-4.3c3.5-0.6,6.5-1.2,8.8-1.6
		c2.3-0.6,4.7-1.2,6.5-2c2-0.8,3.7-1.8,5.5-2.9s3.7-2.7,6.1-4.7l3.7,1c-0.4,2-0.6,3.5-0.8,5.1c-0.2,1.4-0.2,2.9-0.2,4.1v72.8
		c0,6.1,5.5,9.2,16.6,9.2v4.3H239.4z"/>
</g>
<g class="st0">
	<path d="M241.7,250c-2,0-3.7,0-5.5,0.2c-1.8,0-3.3,0.2-4.7,0.4l-0.6-3.7c6.3-6.3,12.1-12.1,17.4-18c5.3-5.9,9.8-11.5,13.7-17
		c3.9-5.5,6.8-11,9.2-16.2c2.2-5.3,3.3-10.6,3.3-15.8c0-5.7-1.6-9.8-4.7-12.5c-3.1-2.7-7.4-4.1-13.3-4.1c-5.3,0-9.4,1-12.1,2.9
		s-4.1,4.7-4.1,8c3.3,1,4.9,2.7,4.9,5.3c0,4.7-2,6.8-6.1,6.8c-3.9,0-5.9-3.1-5.9-9.2c0-7,2.3-12.3,7-16c4.7-3.7,11.7-5.5,21.3-5.5
		c16.8,0,25.4,7.8,25.4,23.5c0,5.3-0.8,10.4-2.5,15.3c-1.8,4.7-4.3,9.6-7.8,14.3c-3.5,4.7-8,9.6-13.3,14.7
		c-5.5,4.9-11.7,10.4-19.2,16h25c2.5,0,4.7-0.2,6.5-0.4c1.8-0.2,3.3-0.8,4.7-1.8c1.4-0.8,2.3-2,3.3-3.5c1-1.6,2-3.5,2.7-6.1l3.7,0.6
		l-5.3,22.5h-43.2V250z"/>
</g>
<rect x="193" y="133.7" width="133" height="4.3"/>
</svg>
