<?xml version="1.0" encoding="utf-8"?>
<!-- Generator: Adobe Illustrator 24.0.3, SVG Export Plug-In . SVG Version: 6.00 Build 0)  -->
<svg version="1.1" id="Layer_1" xmlns="http://www.w3.org/2000/svg" xmlns:xlink="http://www.w3.org/1999/xlink" x="0px" y="0px"
	 viewBox="0 0 197.5 119.1" style="enable-background:new 0 0 197.5 119.1;" xml:space="preserve">
<style type="text/css">
	.st0{enable-background:new    ;}
</style>
<title>Fraction</title>
<g class="st0">
	<path d="M153.2,49.3v-2.2c5.7,0,8.5-1.6,8.5-4.7V10.9c0-2-0.9-3-2.7-3h-6.1V5.7c1.8-0.3,3.3-0.6,4.5-0.8c1.2-0.3,2.4-0.6,3.3-1
		c1-0.4,1.9-0.9,2.8-1.5s1.9-1.4,3.1-2.4l1.9,0.5c-0.2,1-0.3,1.8-0.4,2.6C168,3.8,168,4.6,168,5.2v37.2c0,3.1,2.8,4.7,8.5,4.7v2.2
		H153.2z"/>
</g>
<g class="st0">
	<path d="M154.4,118.8c-1,0-1.9,0-2.8,0.1c-0.9,0-1.7,0.1-2.4,0.2l-0.3-1.9c3.2-3.2,6.2-6.2,8.9-9.2s5-5.9,7-8.7
		c2-2.8,3.5-5.6,4.7-8.3c1.1-2.7,1.7-5.4,1.7-8.1c0-2.9-0.8-5-2.4-6.4c-1.6-1.4-3.8-2.1-6.8-2.1c-2.7,0-4.8,0.5-6.2,1.5
		c-1.4,1-2.1,2.4-2.1,4.1c1.7,0.5,2.5,1.4,2.5,2.7c0,2.4-1,3.5-3.1,3.5c-2,0-3-1.6-3-4.7c0-3.6,1.2-6.3,3.6-8.2
		c2.4-1.9,6-2.8,10.9-2.8c8.6,0,13,4,13,12c0,2.7-0.4,5.3-1.3,7.8c-0.9,2.4-2.2,4.9-4,7.3s-4.1,4.9-6.8,7.5c-2.8,2.5-6,5.3-9.8,8.2
		h12.8c1.3,0,2.4-0.1,3.3-0.2c0.9-0.1,1.7-0.4,2.4-0.9c0.7-0.4,1.2-1,1.7-1.8s1-1.8,1.4-3.1l1.9,0.3l-2.7,11.5h-22.1V118.8z"/>
</g>
<rect x="129.5" y="59.3" width="68" height="2.2"/>
<polygon points="0,13.7 87,59.3 0,104.9 "/>
</svg>
