<?xml version="1.0" encoding="iso-8859-1"?>
<!-- Generator: Adobe Illustrator 16.0.0, SVG Export Plug-In . SVG Version: 6.00 Build 0)  -->
<!DOCTYPE svg PUBLIC "-//W3C//DTD SVG 1.1//EN" "http://www.w3.org/Graphics/SVG/1.1/DTD/svg11.dtd">
<svg version="1.1" id="Capa_1" xmlns="http://www.w3.org/2000/svg" xmlns:xlink="http://www.w3.org/1999/xlink" x="0px" y="0px"
	 width="30.973px" height="30.973px" viewBox="0 0 30.973 30.973" style="enable-background:new 0 0 30.973 30.973;"
	 xml:space="preserve">
<g>
	<g>
		<rect y="2.961" width="2" height="2.034"/>
		<rect y="7.162" width="2" height="2.033"/>
		<rect y="11.359" width="2" height="2.034"/>
		<rect y="15.561" width="2" height="2.033"/>
		<rect y="19.76" width="2" height="2.035"/>
		<polygon points="6.383,24.531 6.383,0.104 3.332,0.104 3.332,27.582 30.973,27.582 30.973,24.531 		"/>
		<rect x="26.08" y="28.861" width="2.034" height="2.008"/>
		<rect x="21.881" y="28.861" width="2.033" height="2.008"/>
		<rect x="17.682" y="28.861" width="2.033" height="2.008"/>
		<rect x="13.481" y="28.861" width="2.034" height="2.008"/>
		<rect x="9.282" y="28.861" width="2.034" height="2.008"/>
		<polygon points="12.837,16.688 18.154,19.235 21.227,13.286 25.938,15.495 30.477,7.363 28.701,6.373 25.086,12.85 20.319,10.614 
			17.254,16.549 12.031,14.045 7.123,22.398 8.877,23.43 		"/>
	</g>
</g>
<g>
</g>
<g>
</g>
<g>
</g>
<g>
</g>
<g>
</g>
<g>
</g>
<g>
</g>
<g>
</g>
<g>
</g>
<g>
</g>
<g>
</g>
<g>
</g>
<g>
</g>
<g>
</g>
<g>
</g>
</svg>
