<?xml version="1.0" encoding="iso-8859-1"?>
<!-- Generator: Adobe Illustrator 18.1.1, SVG Export Plug-In . SVG Version: 6.00 Build 0)  -->
<svg version="1.1" id="Capa_1" xmlns="http://www.w3.org/2000/svg" xmlns:xlink="http://www.w3.org/1999/xlink" x="0px" y="0px"
	 viewBox="0 0 19.342 19.342" style="enable-background:new 0 0 19.342 19.342;" xml:space="preserve">
<g>
	<g>
		<path d="M2.833,4.491c0,0,0.513,0.491,0.513,0.776v12.568c0,0.832,0.736,1.507,1.645,1.507h9.362
			c0.908,0,1.644-0.675,1.644-1.507V5.268c0-0.286,0.515-0.776,0.515-0.776V2.969H2.833V4.491z M12.36,6.23h1.223v9.705H12.36V6.23z
			 M9.086,6.23h1.22v9.705h-1.22V6.23z M6.137,6.23h1.221v9.705H6.137V6.23z"/>
		<path d="M17.108,1.711h-3.791C13.128,0.74,12.201,0,11.087,0H8.257C7.143,0,6.216,0.74,6.027,1.711H2.235
			v0.93h14.873V1.711z M7.297,1.711c0.156-0.344,0.528-0.586,0.96-0.586h2.829c0.433,0,0.804,0.243,0.961,0.586H7.297z"/>
	</g>
</g>
<g>
</g>
<g>
</g>
<g>
</g>
<g>
</g>
<g>
</g>
<g>
</g>
<g>
</g>
<g>
</g>
<g>
</g>
<g>
</g>
<g>
</g>
<g>
</g>
<g>
</g>
<g>
</g>
<g>
</g>
</svg>
